<svg width="128" height="128" viewBox="0 0 128 128" fill="none" xmlns="http://www.w3.org/2000/svg">
<rect width="128" height="128" fill="black"/>
<path d="M11.1307 46.9702V39.3636H46.9688V46.9702H33.6094V83H24.4901V46.9702H11.1307Z" fill="white"/>
<path d="M68.7926 39.3636H80.1705L92.1875 68.6818H92.6989L104.716 39.3636H116.094V83H107.145V54.598H106.783L95.4901 82.7869H89.3963L78.1037 54.4915H77.7415V83H68.7926V39.3636Z" fill="white"/>
<path d="M46.5312 65.334C46.248 65.6758 45.9111 65.9639 45.5205 66.1982C45.1299 66.4326 44.7051 66.623 44.2461 66.7695C43.7969 66.916 43.3281 67.0234 42.8398 67.0918C42.3613 67.1504 41.8926 67.1797 41.4336 67.1797C40.877 67.1797 40.4131 67.1016 40.042 66.9453C39.6709 66.7793 39.373 66.584 39.1484 66.3594C38.9336 66.1348 38.7822 65.9004 38.6943 65.6562C38.6064 65.4023 38.5625 65.1875 38.5625 65.0117C38.6113 64.3672 38.8701 63.7861 39.3389 63.2686C39.5342 63.0537 39.7832 62.8438 40.0859 62.6387C40.3984 62.4238 40.7793 62.2383 41.2285 62.082C41.6777 61.916 42.2051 61.7842 42.8105 61.6865C43.416 61.5791 44.1191 61.5254 44.9199 61.5254C45.7793 61.5254 46.5166 61.584 47.1318 61.7012C47.7568 61.8184 48.2793 61.9697 48.6992 62.1553C49.1191 62.3408 49.4512 62.5557 49.6953 62.7998C49.9492 63.0342 50.1445 63.2686 50.2812 63.5029C50.418 63.7373 50.5059 63.9619 50.5449 64.1768C50.584 64.3916 50.6035 64.5723 50.6035 64.7188C50.6035 65.207 50.4814 65.6855 50.2373 66.1543C49.9932 66.623 49.6953 67.0771 49.3438 67.5166C48.9922 67.9463 48.6211 68.3564 48.2305 68.7471C47.8496 69.1279 47.5176 69.4844 47.2344 69.8164C46.8633 70.2363 46.4336 70.6904 45.9453 71.1787C45.4668 71.667 44.959 72.1699 44.4219 72.6875C43.8945 73.1953 43.3525 73.7178 42.7959 74.2549C42.2393 74.7822 41.7021 75.3047 41.1846 75.8223C40.667 76.3301 40.1787 76.8281 39.7197 77.3164C39.2705 77.7949 38.8848 78.2441 38.5625 78.6641C38.4844 78.752 38.3574 78.9082 38.1816 79.1328C38.0156 79.3574 37.8447 79.6113 37.6689 79.8945C37.4932 80.168 37.3369 80.4512 37.2002 80.7441C37.0732 81.0371 37.0098 81.3008 37.0098 81.5352C37.0098 81.7402 37.1172 81.9209 37.332 82.0771C37.5469 82.2236 37.8301 82.2969 38.1816 82.2969C38.7773 82.2969 39.3535 82.1309 39.9102 81.7988C40.4668 81.4668 41.0088 81.0469 41.5361 80.5391C42.0732 80.0215 42.5957 79.46 43.1035 78.8545C43.6113 78.2393 44.1094 77.6582 44.5977 77.1113C44.8516 76.8184 45.0957 76.5449 45.3301 76.291C45.5742 76.0273 45.8086 75.7832 46.0332 75.5586C46.043 75.5488 46.0625 75.5293 46.0918 75.5C46.1211 75.4707 46.1797 75.4072 46.2676 75.3096C46.3555 75.2119 46.4873 75.0654 46.6631 74.8701C46.8486 74.665 47.1025 74.3867 47.4248 74.0352C47.7471 73.6836 48.1523 73.2393 48.6406 72.7021C49.1289 72.165 49.7246 71.5059 50.4277 70.7246C51.1406 69.9434 51.9707 69.0303 52.918 67.9854C53.875 66.9307 54.9785 65.7148 56.2285 64.3379C56.6289 63.8984 56.9902 63.5225 57.3125 63.21C57.6348 62.8877 57.8789 62.7266 58.0449 62.7266C58.1426 62.7266 58.2695 62.7412 58.4258 62.7705C58.5918 62.79 58.748 62.8242 58.8945 62.873C59.0508 62.9121 59.1826 62.9658 59.29 63.0342C59.3975 63.1025 59.4512 63.1855 59.4512 63.2832C59.4512 63.3223 59.4023 63.4053 59.3047 63.5322C59.207 63.6592 59.0801 63.8105 58.9238 63.9863C58.7676 64.1621 58.5967 64.3525 58.4111 64.5576C58.2256 64.7627 58.0449 64.9629 57.8691 65.1582C57.6934 65.3438 57.5273 65.5195 57.3711 65.6855C57.2246 65.8418 57.1172 65.959 57.0488 66.0371C55.5352 67.7754 54.0117 69.4893 52.4785 71.1787C50.9551 72.8682 49.4219 74.582 47.8789 76.3203C47.3418 76.9258 46.8389 77.4922 46.3701 78.0195C45.9111 78.5469 45.5059 79.0303 45.1543 79.4697C44.8125 79.9092 44.5391 80.2949 44.334 80.627C44.1387 80.959 44.041 81.2227 44.041 81.418C44.041 81.5254 44.0459 81.6377 44.0557 81.7549C44.0654 81.8623 44.0947 81.96 44.1436 82.0479C44.1924 82.1357 44.2656 82.209 44.3633 82.2676C44.4707 82.3262 44.6172 82.3555 44.8027 82.3555C45.3496 82.3555 45.8965 82.2725 46.4434 82.1064C47 81.9404 47.5469 81.7158 48.084 81.4326C48.6309 81.1494 49.1631 80.8174 49.6807 80.4365C50.1982 80.0557 50.7012 79.6504 51.1895 79.2207C51.7754 78.6934 52.3955 78.0977 53.0498 77.4336C53.7041 76.7695 54.3584 76.0713 55.0127 75.3389C55.6768 74.5967 56.3311 73.8252 56.9756 73.0244C57.6201 72.2236 58.2305 71.418 58.8066 70.6074C59.3828 69.7871 59.9102 68.9766 60.3887 68.1758C60.8672 67.3652 61.2773 66.584 61.6191 65.832C61.4336 65.8027 61.2822 65.7539 61.165 65.6855C61.0576 65.6074 60.9746 65.5195 60.916 65.4219C60.8574 65.3145 60.8184 65.2021 60.7988 65.085C60.7793 64.9678 60.7695 64.8555 60.7695 64.748C60.7695 64.5137 60.8135 64.2793 60.9014 64.0449C60.999 63.8105 61.1309 63.6006 61.2969 63.415C61.4727 63.2295 61.6777 63.0781 61.9121 62.9609C62.1562 62.8438 62.4199 62.7852 62.7031 62.7852C62.9863 62.7852 63.1768 62.873 63.2744 63.0488C63.3818 63.2148 63.4355 63.4004 63.4355 63.6055C63.4355 63.7422 63.416 63.874 63.377 64.001C63.3477 64.1182 63.3086 64.2207 63.2598 64.3086C63.1426 64.6016 63.0059 64.9043 62.8496 65.2168C63.2988 65.1875 63.7041 65.1289 64.0654 65.041C64.4268 64.9434 64.7588 64.8164 65.0615 64.6602C65.374 64.5039 65.6621 64.3135 65.9258 64.0889C66.1992 63.8643 66.4629 63.6055 66.7168 63.3125L66.9512 63.5469C66.707 63.9277 66.3848 64.2793 65.9844 64.6016C65.6426 64.875 65.1885 65.1387 64.6221 65.3926C64.0557 65.6465 63.3574 65.8125 62.5273 65.8906C61.8828 67.1699 61.1504 68.4443 60.3301 69.7139C59.5098 70.9736 58.6211 72.2041 57.6641 73.4053C56.707 74.6064 55.6914 75.7637 54.6172 76.877C53.5527 77.9902 52.4492 79.0352 51.3066 80.0117C50.7988 80.4414 50.2764 80.8467 49.7393 81.2275C49.2021 81.5986 48.6455 81.9307 48.0693 82.2236C47.5029 82.5068 46.917 82.7314 46.3115 82.8975C45.7158 83.0635 45.1055 83.1465 44.4805 83.1465C44.2461 83.1465 43.9873 83.1318 43.7041 83.1025C43.4307 83.0732 43.1719 83.0049 42.9277 82.8975C42.6836 82.7803 42.4785 82.6143 42.3125 82.3994C42.1562 82.1748 42.0781 81.8672 42.0781 81.4766C42.0781 81.418 42.083 81.3496 42.0928 81.2715C42.1025 81.1934 42.1172 81.1152 42.1367 81.0371C41.8145 81.3398 41.4775 81.623 41.126 81.8867C40.7842 82.1406 40.4326 82.3652 40.0713 82.5605C39.71 82.7461 39.3438 82.8926 38.9727 83C38.6016 83.1172 38.2305 83.1758 37.8594 83.1758C37.4102 83.1758 37.0244 83.1172 36.7021 83C36.3896 82.873 36.1309 82.7168 35.9258 82.5312C35.7207 82.3359 35.5693 82.1211 35.4717 81.8867C35.3838 81.6426 35.3398 81.4082 35.3398 81.1836C35.3398 80.7051 35.4424 80.2314 35.6475 79.7627C35.8525 79.2939 36.1162 78.8398 36.4385 78.4004C36.7705 77.9512 37.1416 77.5166 37.5518 77.0967C37.9619 76.667 38.3672 76.252 38.7676 75.8516C39.1973 75.4121 39.7002 74.9043 40.2764 74.3281C40.8525 73.7422 41.4434 73.1465 42.0488 72.541C42.6641 71.9258 43.2646 71.3203 43.8506 70.7246C44.4365 70.1289 44.9639 69.5967 45.4326 69.1279C45.9014 68.6592 46.2773 68.2783 46.5605 67.9854C46.8438 67.6924 46.9902 67.541 47 67.5312C47.2246 67.2676 47.4492 66.9941 47.6738 66.7109C47.9082 66.418 48.1182 66.1299 48.3037 65.8467C48.4893 65.5635 48.6406 65.2852 48.7578 65.0117C48.875 64.7383 48.9336 64.4844 48.9336 64.25C48.9336 63.9766 48.8604 63.7227 48.7139 63.4883C48.5771 63.2441 48.3672 63.0342 48.084 62.8584C47.8008 62.6729 47.4443 62.5264 47.0146 62.4189C46.585 62.3115 46.082 62.2578 45.5059 62.2578C45.1836 62.2578 44.8125 62.2822 44.3926 62.3311C43.9824 62.3799 43.5625 62.4531 43.1328 62.5508C42.7031 62.6484 42.2783 62.7803 41.8584 62.9463C41.4482 63.1025 41.082 63.293 40.7598 63.5176C40.4375 63.7324 40.1738 63.9863 39.9688 64.2793C39.7734 64.5625 39.6758 64.8848 39.6758 65.2461C39.6758 65.4902 39.749 65.7002 39.8955 65.876C40.0518 66.042 40.252 66.1787 40.4961 66.2861C40.7402 66.3936 41.0186 66.4717 41.3311 66.5205C41.6436 66.5693 41.9609 66.5938 42.2832 66.5938C42.6543 66.5938 43.0254 66.5645 43.3965 66.5059C43.7773 66.4375 44.1387 66.3447 44.4805 66.2275C44.832 66.1006 45.1543 65.9492 45.4473 65.7734C45.75 65.5879 46.0137 65.3828 46.2383 65.1582L46.5312 65.334Z" fill="white"/>
</svg>
